<svg xmlns="http://www.w3.org/2000/svg" viewBox="0 0 64 64">
  <defs>
    <linearGradient id="bg" x1="0" y1="0" x2="1" y2="1">
      <stop offset="0" stop-color="#0ea5e9"/>
      <stop offset="1" stop-color="#2563eb"/>
    </linearGradient>
  </defs>
  <rect width="64" height="64" rx="14" fill="url(#bg)"/>
  <path d="M14 24h36v26a4 4 0 0 1-4 4H18a4 4 0 0 1-4-4V24Z" fill="#ffffff" opacity="0.96"/>
  <path d="M18 14h28l4 10H14l4-10Z" fill="#f8fafc"/>
  <path d="M20 14h6l-2 10h-8l4-10Zm10 0h6v10h-8l2-10Zm10 0h6l4 10h-8l-2-10Z" fill="#93c5fd"/>
  <rect x="25" y="28" width="14" height="22" rx="3" fill="#0f172a"/>
  <rect x="27" y="31" width="10" height="15" rx="1.5" fill="#38bdf8"/>
  <circle cx="32" cy="48" r="1.3" fill="#e0f2fe"/>
</svg>
